<svg height="14.714" viewBox="0 0 10 14.714" width="10" xmlns="http://www.w3.org/2000/svg"><path d="m90.212 26.578c2.726 5.2 5.788 5.731 6.678 5.264l.232-.122-2.085-3.975-.233.12c-.718.377-1.435-.711-2.353-2.462s-1.406-2.959-.689-3.336l.232-.123-2.085-3.974-.232.122c-.891.467-2.191 3.291.535 8.486zm8.171 4.481c.344-.18.155-.576-.041-.949l-1.4-2.67c-.151-.287-.4-.449-.6-.343-.126.066-.421.206-.8.394l2.081 3.967zm-5.114-9.818c.2-.105.209-.4.059-.69s-1.4-2.67-1.4-2.67c-.2-.373-.413-.753-.758-.572l-.761.4 2.081 3.967c.37-.206.652-.369.779-.435z" fill="#1b224c" transform="translate(-88.574 -17.262)"/></svg>